<!DOCTYPE svg PUBLIC "-//W3C//DTD SVG 1.1//EN" "http://www.w3.org/Graphics/SVG/1.1/DTD/svg11.dtd">
<!-- Uploaded to: SVG Repo, www.svgrepo.com, Transformed by: SVG Repo Mixer Tools -->
<svg fill="#1c274c" width="64px" height="64px" viewBox="0 0 256.00 256.00" id="Flat" xmlns="http://www.w3.org/2000/svg" stroke="#1c274c">
<g id="SVGRepo_bgCarrier" stroke-width="0" transform="translate(38.400000000000006,38.400000000000006), scale(0.7)">
<rect x="0" y="0" width="256.00" height="256.00" rx="128" fill="#8d93a5" strokewidth="0"/>
</g>
<g id="SVGRepo_tracerCarrier" stroke-linecap="round" stroke-linejoin="round" stroke="#8d93a5" stroke-width="8.704"/>
<g id="SVGRepo_iconCarrier"> <g opacity="0.2"> <circle cx="128" cy="128" r="96"/> </g> <path d="M128,24A104,104,0,1,0,232,128,104.11791,104.11791,0,0,0,128,24Zm0,192a88,88,0,1,1,88-88A88.09957,88.09957,0,0,1,128,216ZM140,84v92a8,8,0,0,1-16,0V98.94434l-11.56348,7.70605a8.00008,8.00008,0,1,1-8.873-13.31445l24-15.99317A8.00039,8.00039,0,0,1,140,84Z"/> </g>
</svg>