<!DOCTYPE svg PUBLIC "-//W3C//DTD SVG 1.1//EN" "http://www.w3.org/Graphics/SVG/1.1/DTD/svg11.dtd">
<!-- Uploaded to: SVG Repo, www.svgrepo.com, Transformed by: SVG Repo Mixer Tools -->
<svg fill="#1c274c" width="64px" height="64px" viewBox="0 0 256.00 256.00" id="Flat" xmlns="http://www.w3.org/2000/svg">
<g id="SVGRepo_bgCarrier" stroke-width="0" transform="translate(38.400000000000006,38.400000000000006), scale(0.7)">
<rect x="0" y="0" width="256.00" height="256.00" rx="128" fill="#8d93a5" strokewidth="0"/>
</g>
<g id="SVGRepo_tracerCarrier" stroke-linecap="round" stroke-linejoin="round"/>
<g id="SVGRepo_iconCarrier"> <g opacity="0.2"> <circle cx="128" cy="128" r="96"/> </g> <path d="M128,24A104,104,0,1,0,232,128,104.11791,104.11791,0,0,0,128,24Zm0,192a88,88,0,1,1,88-88A88.09957,88.09957,0,0,1,128,216Zm21.459-89.45508a35.99995,35.99995,0,0,1-50.9121,50.91113,8.00052,8.00052,0,0,1,11.31445-11.31445A19.99959,19.99959,0,1,0,124.00293,132a8,8,0,0,1-6.55469-12.58691l19.1875-27.4209H103.99707a8,8,0,0,1,0-16h48a8,8,0,0,1,6.55469,12.58691L137.5332,118.61816A35.92893,35.92893,0,0,1,149.459,126.54492Z"/> </g>
</svg>