<?xml version="1.0" encoding="UTF-8"?>
<svg id="Capa_1" data-name="Capa 1" xmlns="http://www.w3.org/2000/svg" xmlns:xlink="http://www.w3.org/1999/xlink" viewBox="0 0 294.7 42.69">
  <defs>
    <style>
      .cls-1 {
        fill: #000;
      }

      .cls-1, .cls-2 {
        stroke-width: 0px;
      }

      .cls-3 {
        isolation: isolate;
      }

      .cls-2 {
        fill: #fff;
      }
    </style>
  </defs>
  <image class="cls-3" width="750" height="745" transform="scale(.06)" xlink:href="Diseños - Logos variados/icono_v1.png"/>
  <g>
    <path class="cls-2" d="M42.47,42.52V.18h252.23v42.34H42.47ZM257.55,31.6c0-6.62-1.86-15.49-.87-22.05-1.68-.26-3.19-.48-4.86-.74v19.92c-1.1-.11-1.94,1.04-2.95.35-.72-2.39-.55-17.18.76-19.59h-6.08c0,7.24-.44,14.44-.44,21.65,1.53,1.37,3.09,2.77,4.74,4.24h5.08c1.53-1.26,3.05-2.51,4.61-3.78h.01ZM193.63,34.31c.37-3.47-.19-6.68-.13-9.69.15-.4.29-.8.41-1.1.65.36,1.08.6,1.5.83.09,2.74.05,7.89,1.1,10.48h4.14v-10.46c-.66-.99-1.35-2.02-1.94-2.9.66-.7,1.38-1.45,1.96-2.06v-6.14c-.86-1.38-1.63-2.62-2.43-3.9-2.87,0-6.42.96-9.21.53-1.04,7.99-.56,16.33-.56,24.41h5.16,0ZM118.23,34.95c-.85-6.71-1.27-15.23-1.03-22.02-.52-1.37-.96-2.51-1.36-3.56h-6.37c-1.17,1.6-2.37,3.24-3.62,4.95.54,6.75-.43,14.24-.43,21.04,1.46-.95,2.93-.18,4.25-.61,1.02-1.7.29-3.72.65-5.4h2.55v5.01c1.65,1.01,3.4.25,5.36.59ZM269.08,34.89c1.3-.1,2.62.31,3.72-.75V9.47h-4.63c.31,1.44,1.22,7.53.37,8.86-1.87-2.61-2.94-5.63-4.18-8.35h-4.3c.72,8.08.56,16.13.56,24.26h4.37v-12.44c2.69,3.77,3.39,8.48,4.1,13.1h-.01ZM98.42,9.45h-7.76v25.35h8.7c1.24-1.45,2.31-2.7,3.44-4.02-.33-2.63-.48-5.27-.44-7.93-.8-.7-1.51-1.32-2.23-1.96.5-.58.91-1.06,1.32-1.54,0-2.62.91-5.19.38-7.7-1.14-.74-2.21-1.43-3.41-2.21h0ZM87.6,31.42c-.3-6.28-.54-12.5-.54-18.79-1.36-1.2-2.57-2.26-3.66-3.22h-3.98c-1.43.94-2.79,1.83-4.04,2.64-1.02,6.76-.36,13.47-.58,20.14,2.74,1.85,4.29,3.57,7.71,3.14,1.66-1.27,3.31-2.54,5.09-3.91ZM173.26,12.21c-.96,6.63-.33,13.34-.54,19.96,1.52,1.15,2.89,2.2,4.17,3.17h3.52c1.71-1.31,3.36-2.57,5.1-3.91-.28-6.27-.53-12.5-.53-18.79-1.39-1.23-2.6-2.3-3.44-3.03-3.4-.9-5.88.47-8.28,2.6h0ZM234.45,24.79c.44,3.39.88,6.72,1.33,10.22,1.53-1.1,3.14-.41,4.75-.75-.49-3.66-.97-7.25-1.56-11.72-.59-.69-1.66-1.93-2.75-3.2,1.43-3.14,3.13-6.13,4.36-9.39-1.72-.23-3.3.29-4.6-.57-.6,1.22-2.51,6.56-3.97,7.18-.63-.8-.18-6.46-.18-7.1h-4.44c0,6.19,2.22,19.73-.58,25.41,1.8.02,3.59,0,5.39-.06,0-3.36.17-6.62-.4-9.92.2-.23.4-.47.71-.82.52.19,1.1.41,1.96.73h-.02ZM53.8,19.26c1.77-.29,3.28-.53,4.8-.78v-6.48c-1.1-1.04-2.2-2.08-3.32-3.14h-5.97c-.86,1.34-1.69,2.62-2.46,3.82,0,6.21-.44,12.49-.44,18.64,1.28,1.49,2.36,2.75,3.44,4.02h5.4c1.22-1.16,2.32-2.21,3.39-3.23,0-3.28,1.11-8.36.31-11.46h-6.01c.21,1.91.41,3.73.6,5.48.28.08.48.13.67.18v2.74c-1.24,1.73-2.3-.4-3.36.11v-14.64h2.94v4.73h.01ZM288.14,32.11c0-3.28,1.12-8.37.31-11.46h-6.01c.21,1.9.41,3.73.61,5.49.28.07.48.12.67.17v2.74c-1.23,1.75-2.3-.4-3.37.13v-14.65h3.01v4.72c1.69-.27,3.2-.52,4.73-.76v-6.47c-1.1-1.04-2.2-2.08-3.33-3.14h-5.97c-.86,1.33-1.69,2.62-2.46,3.82,0,6.22-.44,12.5-.44,18.65,1.27,1.48,2.35,2.74,3.44,4.01h5.41c1.22-1.16,2.32-2.21,3.39-3.24h0ZM157,31.55v-8.51c-.71-1.06-1.35-2.02-1.97-2.96-2.01-.06-4.02.32-6.01-.82.21-1.38.43-2.81.65-4.22h2.47c.03.63.06,1.2.09,1.77.21.24.41.48.47.55,1.38.24,2.6.45,3.81.66v-5.3c-.74-.98-1.39-1.84-2.08-2.74-2.1-.61-4.23-.82-6.39-.61-1.09,1.28-2.17,2.54-3.22,3.75v8.78c.84,1.16,1.91,1.93,2.43,3.39h4.88v4.34c-1.03.52-1.78-.18-2.55-.63-.22-.76-.43-1.51-.61-2.16-1.31.89-2.81.02-4.17.54v4.08c1.18,1.38,2.25,2.64,3.33,3.91h5.6c1.11-1.29,2.19-2.55,3.27-3.81h0ZM208.63,14.45c1.7-.03,3.17,1.11,4.8.28-.39-1.77.94-3.44.23-5.36-1.36,0-9.31-1.06-10.32.28,0,8.03,1.01,17.25-.45,25.16h10.52c-.13-1.76.34-3.52-.79-5.13h-3.99v-4.83c1.63-.28,3.2-.55,4.67-.8v-4.55c-1.59-.2-3.12-.4-4.68-.59v-4.46ZM167.49,34.82c0-6.47-.16-12.91-.46-19.37h3.44c-.77-2.02-.03-4.13-.47-6h-10.22c-.95,1.78-.47,3.61-.61,5.48h2.39c.28.33.49.57.76.89v19h5.18,0ZM66.95,8.94h-4.81c0,8.47-1.23,17.98-.35,26.36h10.41c.02-1.87,0-3.75-.07-5.62h-5.18V8.94ZM121.59,8.9c0,8.84-.44,17.67-.44,26.48,1.22,0,9.45,1.04,10.41-.17v-5.45h-5.17V8.9h-4.8Z"/>
    <path class="cls-1" d="M257.55,31.6c-1.55,1.27-3.08,2.53-4.61,3.78h-5.08c-1.65-1.48-3.21-2.87-4.74-4.24,0-7.21.44-14.41.44-21.65h6.08c-1.31,2.41-1.48,17.21-.76,19.59,1.01.69,1.85-.46,2.95-.35V8.81c1.67.25,3.18.48,4.86.74-.99,6.55.87,15.43.87,22.05h0Z"/>
    <path class="cls-1" d="M193.63,34.31h-5.16c0-8.08-.48-16.42.56-24.41,2.78.43,6.33-.53,9.21-.53.8,1.28,1.57,2.52,2.43,3.9v6.14c-.58.62-1.3,1.37-1.96,2.06.59.88,1.28,1.91,1.94,2.9v10.46h-4.14c-1.05-2.59-1-7.73-1.1-10.48-.42-.23-.84-.47-1.5-.83-.11.31-.26.71-.41,1.1-.06,3.01.5,6.22.13,9.69h0ZM195.45,19.37c-.08-1.47,1.32-2.98-.13-4.33h-1.98v4.33c.08-.09.16-.18.24-.28.12.42.25.84.34,1.14.63-.35.99-.56,1.54-.86h0Z"/>
    <path class="cls-1" d="M118.23,34.95c-1.96-.34-3.71.42-5.36-.59v-5.01h-2.55c-.37,1.68.36,3.69-.65,5.4-1.32.44-2.79-.34-4.25.61,0-6.8.97-14.29.43-21.04,1.25-1.71,2.45-3.36,3.62-4.95h6.37c.4,1.05.84,2.2,1.36,3.56-.24,6.79.18,15.31,1.03,22.02ZM113.25,14.55h-3.02v9.01h3.02v-9.01Z"/>
    <path class="cls-1" d="M269.08,34.89c-.71-4.62-1.41-9.33-4.1-13.1v12.44h-4.37c0-8.12.16-16.17-.56-24.26h4.3c1.24,2.73,2.31,5.74,4.18,8.35.85-1.32-.05-7.42-.37-8.86h4.63v24.67c-1.1,1.05-2.42.65-3.72.75h.01Z"/>
    <path class="cls-1" d="M98.42,9.45c1.2.78,2.27,1.47,3.41,2.21.52,2.51-.38,5.08-.38,7.7-.41.48-.82.96-1.32,1.54.72.63,1.43,1.26,2.23,1.96-.04,2.66.11,5.3.44,7.93-1.13,1.32-2.2,2.57-3.44,4.02h-8.7V9.45h7.76,0ZM97.95,22.95c-1.14.31-2.06.56-3,.81v5.29c1.02.47,2.01,1.45,3-.02v-6.09h0ZM94.98,15.17c-.24,1.25.34,2.56-.46,3.66.2.23.4.47.69.8.73-.24,1.51-.49,2.31-.75v-3.71c-.24-.27-.45-.5-.65-.71-.6.23-1.18.45-1.89.72h0Z"/>
    <path class="cls-1" d="M87.6,31.42c-1.78,1.37-3.43,2.64-5.09,3.91-3.43.43-4.97-1.29-7.71-3.14.22-6.68-.44-13.38.58-20.14,1.25-.82,2.61-1.71,4.04-2.64h3.98c1.09.96,2.3,2.03,3.66,3.22,0,6.29.24,12.51.54,18.79ZM79.68,14.59v15.07h2.51c.47-4.92.5-10.02.5-14.96-.28-.3-.48-.52-.68-.73-.64.93-1.53.25-2.33.62Z"/>
    <path class="cls-1" d="M173.26,12.21c2.41-2.14,4.88-3.5,8.28-2.6.83.74,2.04,1.8,3.44,3.03,0,6.28.25,12.51.53,18.79-1.74,1.34-3.39,2.6-5.1,3.91h-3.52c-1.28-.97-2.65-2.01-4.17-3.17.2-6.62-.42-13.32.54-19.96h0ZM180.05,13.79c-.7,1.22-1.74.3-2.4.79v15.11h2.46c.35-4.21,1.57-11.91-.06-15.9h0Z"/>
    <path class="cls-1" d="M234.45,24.79c-.86-.32-1.44-.53-1.96-.73-.3.35-.51.59-.71.82.57,3.3.4,6.56.4,9.92-1.79.06-3.59.08-5.39.06,2.8-5.68.58-19.21.58-25.41h4.44c0,.64-.45,6.29.18,7.1,1.46-.62,3.37-5.96,3.97-7.18,1.3.86,2.87.34,4.6.57-1.23,3.26-2.93,6.24-4.36,9.39,1.09,1.27,2.16,2.52,2.75,3.2.6,4.46,1.08,8.05,1.56,11.72-1.61.35-3.22-.34-4.75.75-.46-3.5-.89-6.84-1.33-10.22h.02Z"/>
    <path class="cls-1" d="M53.8,19.26v-4.73h-2.94v14.64c1.06-.51,2.12,1.62,3.36-.11v-2.74c-.19-.05-.39-.1-.67-.18-.19-1.75-.39-3.58-.6-5.48h6.01c.8,3.1-.31,8.17-.31,11.46-1.07,1.02-2.17,2.07-3.39,3.23h-5.4c-1.09-1.27-2.16-2.53-3.44-4.02,0-6.15.44-12.43.44-18.64.77-1.2,1.6-2.48,2.46-3.82h5.97c1.13,1.06,2.22,2.1,3.32,3.14v6.48c-1.52.25-3.03.49-4.8.78h-.01Z"/>
    <path class="cls-1" d="M288.14,32.11c-1.08,1.03-2.17,2.07-3.39,3.24h-5.41c-1.09-1.27-2.16-2.53-3.44-4.01,0-6.15.44-12.44.44-18.65.77-1.2,1.6-2.49,2.46-3.82h5.97c1.13,1.07,2.23,2.11,3.33,3.14v6.47c-1.53.25-3.04.49-4.73.76v-4.72h-3.01v14.65c1.06-.53,2.13,1.63,3.37-.13v-2.74c-.19-.05-.39-.1-.67-.17-.2-1.76-.4-3.59-.61-5.49h6.01c.81,3.09-.31,8.18-.31,11.46h0Z"/>
    <path class="cls-1" d="M157,31.55c-1.08,1.26-2.16,2.52-3.27,3.81h-5.6c-1.08-1.26-2.15-2.52-3.33-3.91v-4.08c1.36-.52,2.86.36,4.17-.54.19.65.4,1.4.61,2.16.77.45,1.52,1.15,2.55.63v-4.34h-4.88c-.52-1.46-1.59-2.23-2.43-3.39v-8.78c1.04-1.22,2.12-2.48,3.22-3.75,2.16-.21,4.29,0,6.39.61.69.91,1.34,1.76,2.08,2.74v5.3c-1.21-.21-2.43-.42-3.81-.66-.06-.07-.27-.31-.47-.55-.03-.57-.06-1.14-.09-1.77h-2.47c-.22,1.41-.44,2.84-.65,4.22,1.98,1.15,3.99.76,6.01.82.62.93,1.26,1.9,1.97,2.96v8.51h0Z"/>
    <path class="cls-1" d="M208.63,14.45v4.44c1.56.2,3.09.39,4.68.59v4.55c-1.47.25-3.04.52-4.67.8v4.83h3.99c1.13,1.62.65,3.38.79,5.13h-10.52c1.46-7.91.45-17.13.45-25.16,1.01-1.34,8.96-.28,10.32-.28.71,1.93-.63,3.59-.23,5.36-1.63.83-3.1-.31-4.8-.28v.02Z"/>
    <path class="cls-1" d="M167.49,34.82h-5.18V15.82c-.28-.32-.48-.56-.76-.89h-2.39c.14-1.87-.33-3.7.61-5.48h10.22c.44,1.87-.3,3.99.47,6h-3.44c.31,6.46.46,12.9.46,19.37h0Z"/>
    <path class="cls-1" d="M66.95,8.94v20.74h5.18c.06,1.87.09,3.74.07,5.62h-10.41c-.88-8.38.35-17.88.35-26.36,0,0,4.81,0,4.81,0Z"/>
    <path class="cls-1" d="M121.59,8.9h4.8v20.86h5.17v5.45c-.97,1.21-9.19.17-10.41.17,0-8.81.44-17.64.44-26.48Z"/>
    <path class="cls-2" d="M195.45,19.37c-.54.31-.91.51-1.54.86-.09-.3-.21-.72-.34-1.14-.08.09-.16.18-.24.28v-4.33h1.98c1.45,1.35.05,2.86.13,4.33h0Z"/>
    <path class="cls-2" d="M113.25,14.55v9.01h-3.02v-9.01s3.02,0,3.02,0Z"/>
    <path class="cls-2" d="M97.95,22.95v6.09c-.99,1.47-1.98.48-3,.02v-5.29c.94-.25,1.86-.5,3-.81h0Z"/>
    <path class="cls-2" d="M94.98,15.17c.71-.27,1.29-.49,1.89-.72.2.22.4.45.65.71v3.71c-.8.26-1.58.51-2.31.75-.28-.33-.49-.57-.69-.8.8-1.1.22-2.41.46-3.66h0Z"/>
    <path class="cls-2" d="M79.68,14.59c.81-.37,1.69.31,2.33-.62.2.21.39.42.68.73,0,4.95-.03,10.04-.5,14.96h-2.51v-15.07Z"/>
    <path class="cls-2" d="M180.05,13.79c1.63,3.99.41,11.69.06,15.9h-2.46v-15.11c.65-.5,1.7.43,2.4-.79h0Z"/>
  </g>
</svg>